<svg width="80" height="81" viewBox="0 0 80 81" fill="none" xmlns="http://www.w3.org/2000/svg">
<rect y="0.229126" width="80" height="80" rx="8" fill="#452534"/>
<g clip-path="url(#clip0_1_101)">
<path d="M58.7501 27.7291H50.4167C48.7591 27.7291 47.1694 28.3876 45.9973 29.5597C44.8252 30.7318 44.1667 32.3215 44.1667 33.9791C44.1667 35.6367 44.8252 37.2264 45.9973 38.3985C47.1694 39.5706 48.7591 40.2291 50.4167 40.2291H52.5001C54.1577 40.2291 55.7474 40.8876 56.9195 42.0597C58.0916 43.2318 58.7501 44.8215 58.7501 46.4791C58.7501 48.1367 58.0916 49.7264 56.9195 50.8985C55.7474 52.0706 54.1577 52.7291 52.5001 52.7291H44.1667" stroke="white" stroke-width="2" stroke-linecap="round" stroke-linejoin="round"/>
<path d="M35.8333 52.7291H33.75C30.4348 52.7291 27.2554 51.4122 24.9112 49.068C22.567 46.7238 21.25 43.5443 21.25 40.2291C21.25 36.9139 22.567 33.7345 24.9112 31.3903C27.2554 29.0461 30.4348 27.7291 33.75 27.7291H35.8333" stroke="white" stroke-width="2" stroke-linecap="round" stroke-linejoin="round"/>
<path d="M50.4167 56.8958V52.7291" stroke="white" stroke-width="2" stroke-linecap="round" stroke-linejoin="round"/>
<path d="M52.5 27.7291V23.5625" stroke="white" stroke-width="2" stroke-linecap="round" stroke-linejoin="round"/>
</g>
<defs>
<clipPath id="clip0_1_101">
<rect width="50" height="50" fill="white" transform="translate(15 15.2291)"/>
</clipPath>
</defs>
</svg>
