<svg width="80" height="81" viewBox="0 0 80 81" fill="none" xmlns="http://www.w3.org/2000/svg">
<rect y="0.187897" width="80" height="80" rx="8" fill="#2A4628"/>
<g clip-path="url(#clip0_1_44)">
<path d="M49.494 31.2593C49.0793 30.0827 48.322 29.0572 47.3195 28.3146C46.3171 27.572 45.1153 27.1465 43.869 27.0927H35.5356C33.878 27.0927 32.2883 27.7511 31.1162 28.9232C29.9441 30.0953 29.2856 31.685 29.2856 33.3427C29.2856 35.0003 29.9441 36.59 31.1162 37.7621C32.2883 38.9342 33.878 39.5927 35.5356 39.5927H43.869C45.5266 39.5927 47.1163 40.2511 48.2884 41.4232C49.4605 42.5953 50.119 44.185 50.119 45.8427C50.119 47.5003 49.4605 49.09 48.2884 50.2621C47.1163 51.4342 45.5266 52.0927 43.869 52.0927H35.5356C34.2893 52.0388 33.0875 51.6133 32.0851 50.8707C31.0826 50.1281 30.3253 49.1026 29.9106 47.926" stroke="white" stroke-width="3.5" stroke-linecap="round" stroke-linejoin="round"/>
<path d="M40 21.1403V27.3903M40 52.3903V58.6403" stroke="white" stroke-width="3.5" stroke-linecap="round" stroke-linejoin="round"/>
</g>
<defs>
<clipPath id="clip0_1_44">
<rect width="50" height="50" fill="white" transform="translate(15 15.1879)"/>
</clipPath>
</defs>
</svg>
