<svg width="48" height="60" viewBox="0 0 48 60" fill="none" xmlns="http://www.w3.org/2000/svg">
    <path fill-rule="evenodd" clip-rule="evenodd" d="M24 56.577L26.124 58.6792C25.8453 58.957 25.514 59.1774 25.1493 59.3278C24.7845 59.4781 24.3935 59.5556 23.9985 59.5556C23.6035 59.5556 23.2125 59.4781 22.8477 59.3278C22.483 59.1774 22.1517 58.957 21.873 58.6792L21.855 58.6584L21.804 58.6078L21.618 58.4202C20.5605 57.3389 19.5203 56.241 18.498 55.1268C15.9312 52.3351 13.4734 49.4465 11.13 46.4676C8.454 43.0432 5.718 39.1721 3.639 35.3487C1.605 31.5997 0 27.5381 0 23.8219C0 10.3059 10.776 0 24 0C37.224 0 48 10.3059 48 23.8219C48 27.5381 46.395 31.5997 44.361 35.3457C42.282 39.1751 39.549 43.0432 36.87 46.4676C33.5921 50.6353 30.0911 54.6252 26.382 58.4202L26.196 58.6078L26.145 58.6584L26.127 58.6763L24 56.577ZM24 32.7551C26.3869 32.7551 28.6761 31.8139 30.364 30.1386C32.0518 28.4633 33 26.1911 33 23.8219C33 21.4526 32.0518 19.1805 30.364 17.5051C28.6761 15.8298 26.3869 14.8887 24 14.8887C21.6131 14.8887 19.3239 15.8298 17.636 17.5051C15.9482 19.1805 15 21.4526 15 23.8219C15 26.1911 15.9482 28.4633 17.636 30.1386C19.3239 31.8139 21.6131 32.7551 24 32.7551Z" fill="currentColor"/>
</svg>